HIERARCHY
ROOT pelvis
{
	OFFSET 0.000000 0.000000 0.000000
	CHANNELS 6 Xposition Yposition Zposition Zrotation Xrotation Yrotation
	JOINT lfemur
	{
		OFFSET 11.446000 0.000000 0.000000
		CHANNELS 3 Zrotation Xrotation Yrotation
		JOINT ltibia
		{
			OFFSET 0.000000 -42.030400 0.000000
			CHANNELS 3 Zrotation Xrotation Yrotation
			JOINT lfoot
			{
				OFFSET 0.000000 -39.930200 0.000000
				CHANNELS 3 Zrotation Xrotation Yrotation
				JOINT ltoes
				{
					OFFSET 0.000000 0.000000 11.775800
					CHANNELS 3 Zrotation Xrotation Yrotation
					End Site
					{
					    OFFSET 0.000000 0.000000 5.000000
					}
				}
			}
		}
	}
	JOINT rfemur
	{
		OFFSET -11.446000 0.000000 0.000000
		CHANNELS 3 Zrotation Xrotation Yrotation
		JOINT rtibia
		{
			OFFSET 0.000000 -42.030400 0.000000
			CHANNELS 3 Zrotation Xrotation Yrotation
			JOINT rfoot
			{
				OFFSET 0.000000 -39.930200 0.000000
				CHANNELS 3 Zrotation Xrotation Yrotation
				JOINT rtoes
				{
					OFFSET 0.000000 0.000000 11.775800
					CHANNELS 3 Zrotation Xrotation Yrotation
					End Site
					{
					    OFFSET 0.000000 0.000000 5.000000
					}
				}
			}
		}
	}
	JOINT thorax
	{
		OFFSET 0.000000 11.255600 -5.000000
		CHANNELS 3 Zrotation Xrotation Yrotation
		JOINT head
		{
			OFFSET 0.000000 43.799300 0.000000
			CHANNELS 3 Zrotation Xrotation Yrotation
			End Site
			{
			    OFFSET 0.000000 5.000000 0.000000
			}
		}
		JOINT lclavicle
		{
			OFFSET 0.000000 39.863000 0.000000
			CHANNELS 3 Zrotation Xrotation Yrotation
			JOINT lhumerus
			{
				OFFSET 17.380600 4.958300 0.000000
				CHANNELS 3 Zrotation Xrotation Yrotation
				JOINT lradius
				{
					OFFSET 0.000000 -27.561300 0.000000
					CHANNELS 3 Zrotation Xrotation Yrotation
					JOINT lhand
					{
						OFFSET 0.000000 -26.933000 0.000000
						CHANNELS 3 Zrotation Xrotation Yrotation
						End Site
						{
						    OFFSET 0.000000 -5.000000 0.000000
						}
					}
				}
			}
		}
		JOINT rclavicle
		{
			OFFSET 0.000000 39.863000 0.000000
			CHANNELS 3 Zrotation Xrotation Yrotation
			JOINT rhumerus
			{
				OFFSET -17.380600 4.958300 0.000000
				CHANNELS 3 Zrotation Xrotation Yrotation
				JOINT rradius
				{
					OFFSET 0.000000 -27.561300 0.000000
					CHANNELS 3 Zrotation Xrotation Yrotation
					JOINT rhand
					{
						OFFSET 0.000000 -26.933000 0.000000
						CHANNELS 3 Zrotation Xrotation Yrotation
						End Site
						{
						    OFFSET 0.000000 -5.000000 0.000000
						}
					}
				}
			}
		}
	}
}
MOTION
Frames: 13
Frame Time:	0.0333333
64.235300 82.944500 11.080900 5.008386 -0.653353 -61.063611 -15.350769 -25.313942 -16.804561 -0.000000 43.423903 -0.000000 0.000000 -1.451455 0.712828 -0.000000 -1.360202 -0.000000 -9.711361 -20.113943 -15.090130 -0.000000 46.033412 -0.000000 -0.000000 -8.798778 -3.026767 0.000000 -29.541978 -0.000000 -1.358205 12.843360 1.143828 30.844081 16.445740 -5.729697 -6.953397 0.000000 4.265780 28.594469 -4.888766 -44.487668 180.000031 -57.950753 163.886553 11.133302 -8.546406 -0.000000 3.105057 0.000000 -5.170438 -115.285680 -69.129099 -98.619973 0.000001 -26.383471 18.212869 -16.297418 2.116709 0.000000 
63.732200 84.085700 11.042100 3.707180 -0.477487 -59.372909 -14.026811 -21.876201 -17.427175 -0.000000 39.272763 -0.000000 -0.000000 0.093000 0.229953 -0.000000 -1.360475 -0.000000 -7.579209 -17.272058 -12.502454 -0.000000 42.977461 -0.000000 0.000000 -6.284917 -5.340839 -0.000000 -29.537866 0.000000 -2.183322 12.751519 -3.647467 31.140967 18.725811 -3.967572 -6.387493 0.000000 7.742425 29.374988 -3.550264 -44.158698 -180.000037 -57.856347 164.872790 10.397790 -8.134731 -0.000000 3.481338 -0.000000 -3.769531 -84.771927 -71.535446 -69.714492 0.000000 -37.456301 12.018097 -16.917968 2.328485 -0.000000 
63.377400 85.086600 10.828000 3.411504 0.158316 -58.749649 -12.520809 -19.985239 -17.453436 -0.000000 35.509953 -0.000000 -0.000000 1.604317 -0.160647 -0.000000 -1.359827 -0.000000 -5.719447 -16.306812 -10.653289 0.000000 40.627811 -0.000000 -0.000000 -4.594828 -6.770351 -0.000000 -29.524223 -0.000000 -2.654751 11.611291 -4.385977 31.939035 19.696663 -5.367006 -6.334740 0.000000 7.390588 30.019723 -3.163648 -44.145286 -180.000036 -58.235871 164.806580 10.924647 -8.345969 -0.000000 5.010623 0.000000 -1.796073 -61.112270 -64.328640 -44.545495 -0.000000 -50.833925 7.562786 -18.939849 3.021061 -0.000000 
63.044200 85.822500 10.611100 3.115961 0.545037 -58.787326 -11.133229 -18.341957 -16.879437 -0.000000 32.373358 -0.000000 0.000000 2.735016 -0.517410 -0.000000 -1.365939 -0.000000 -4.470646 -15.668881 -10.229008 -0.000000 38.788628 0.000000 -0.000000 -4.172029 -6.561225 0.000000 -29.526361 0.000000 -3.071601 10.628137 -4.840426 31.363802 20.329581 -6.477976 -7.103525 0.000000 6.875224 31.864343 -2.595481 -43.208090 -180.000032 -57.425696 164.690206 10.620256 -8.109280 0.000000 7.925934 -0.000000 1.265142 -50.550855 -52.645619 -29.403259 -0.000001 -68.036970 7.467087 -20.251411 3.466938 -0.000000 
62.947300 86.177300 10.448500 3.622133 1.044075 -58.937798 -10.674887 -18.029709 -17.415170 -0.000000 30.411232 -0.000000 -0.000000 3.359738 -0.016893 0.000000 -1.365278 -0.000000 -4.088441 -16.380173 -11.194772 -0.000000 37.685266 -0.000000 0.000000 -4.848857 -4.983157 0.000000 -29.524756 -0.000000 -2.706906 10.026875 -1.542629 31.805813 18.343465 -10.368988 -7.669345 -0.000000 1.727908 31.760209 -1.849064 -41.374149 180.000035 -57.332040 163.615426 11.033440 -7.789572 0.000000 10.140716 0.000000 1.138138 -46.823904 -39.705307 -22.280451 -0.000003 -86.185678 5.557731 -19.534035 3.225755 -0.000000 
62.685000 86.260100 10.137700 3.362015 1.175550 -59.293474 -9.991713 -17.707473 -16.992272 -0.000000 30.186430 0.000000 -0.000000 3.130921 0.046099 -0.000000 -1.371995 0.000000 -3.148315 -15.784795 -11.463590 -0.000000 34.975927 -0.000000 0.000000 -5.229132 -5.577041 0.000000 -29.525066 -0.000000 -3.107423 9.856505 -1.892120 30.262027 18.029813 -10.773471 -8.064616 0.000000 1.767332 32.661423 -1.713409 -39.796021 -180.000037 -57.572339 162.838597 11.308478 -7.253301 0.000000 13.131253 0.000000 3.482237 -41.667304 -26.607763 -13.774723 -180.000035 -77.608174 -173.105685 -19.661397 3.264492 -0.000000 
62.460200 86.103500 9.802600 3.024311 1.133860 -59.477178 -9.646433 -17.926181 -16.663125 -0.000000 31.237757 -0.000000 0.000000 2.553254 -0.057760 -0.000000 -1.373566 -0.000000 -2.453856 -15.053389 -12.216405 0.000000 32.441886 -0.000000 -0.000000 -4.809256 -5.828632 -0.000000 -29.524605 -0.000000 -3.353100 10.169557 -2.055940 28.558601 17.302005 -11.257687 -8.515691 -0.000000 1.616558 33.307540 -1.843246 -38.165276 180.000037 -58.222834 163.369811 11.319754 -7.217119 -0.000000 16.553922 -0.000000 3.659183 -37.579243 -15.264247 -5.186571 -180.000037 -65.489674 -169.550612 -19.508991 3.201739 0.000000 
62.332000 85.736900 9.450700 2.780260 1.014294 -60.001560 -9.581927 -18.705792 -16.363335 -0.000000 33.325432 -0.000000 -0.000000 1.643020 0.158645 -0.000000 -1.383019 -0.000000 -1.964700 -15.007015 -12.793035 -0.000000 31.744680 -0.000000 -0.000000 -4.905354 -5.234843 -0.000000 -29.530042 -0.000000 -3.586871 10.919523 -2.728076 26.588781 16.707303 -10.799003 -9.289296 -0.000000 1.899009 33.969410 -2.002491 -36.205998 180.000032 -58.568713 163.949308 12.067703 -6.930559 0.000000 21.552453 -0.000000 2.496680 -36.615421 -7.154223 3.090567 -180.000032 -58.161472 -165.994764 -17.719867 2.577320 0.000000 
62.399600 85.167600 9.133100 2.497506 0.570759 -61.014825 -10.018566 -19.536342 -16.414432 -0.000000 35.849013 -0.000000 0.000000 0.384350 1.106480 -0.000000 -1.391153 -0.000000 -2.064788 -15.627830 -12.781317 -0.000000 33.531738 -0.000000 -0.000000 -5.210522 -5.189642 0.000000 -29.529083 -0.000000 -3.855779 11.902042 -3.538711 24.392326 16.203499 -9.794126 -10.019151 -0.000000 1.987038 34.586839 -1.415790 -34.057820 180.000033 -58.262299 164.494721 12.414485 -6.862809 -0.000000 25.318996 0.000000 0.900197 -36.095381 -1.631653 9.616623 -180.000036 -54.387087 -162.350422 -18.210048 2.725502 0.000000 
62.532800 84.522800 8.790400 1.849834 -0.029442 -62.926755 -10.058047 -20.121334 -15.394983 -0.000000 38.532049 -0.000000 -0.000000 -1.109958 1.971806 -0.000000 -1.401686 0.000000 -2.094201 -16.421718 -11.657357 -0.000000 35.848324 -0.000000 0.000000 -6.157082 -4.376790 0.000000 -29.523731 -0.000000 -4.044939 13.063088 -4.365654 21.844789 16.437949 -7.773873 -10.598856 0.000000 2.201109 34.757864 0.040522 -31.800550 180.000035 -57.785559 164.651956 13.077054 -6.844816 -0.000000 25.682432 0.000000 -0.069822 -33.414579 2.202802 14.375688 180.000029 -54.583121 -167.090435 -18.641011 2.872646 0.000000 
62.876500 83.956400 8.379800 1.467759 -0.371180 -65.811280 -9.566241 -21.140434 -13.247851 -0.000000 40.957624 -0.000000 -0.000000 -2.360354 2.680258 0.000000 -1.412427 0.000000 -1.728855 -18.013138 -9.820333 0.000000 38.297121 -0.000000 0.000000 -6.723224 -3.708573 0.000000 -29.521112 0.000000 -4.238061 13.656174 -4.681625 19.602020 16.423584 -6.060410 -11.315094 -0.000000 2.175813 34.715322 2.092780 -29.732359 180.000036 -57.164940 164.548561 13.172231 -7.162361 0.000000 25.447242 0.000000 -0.580538 -31.717981 3.968866 17.275849 180.000037 -55.230364 -167.832291 -17.136559 2.355867 0.000000 
63.276500 83.633900 8.018500 1.437187 -0.755927 -68.970946 -9.080147 -21.840036 -11.113009 -0.000000 42.119258 -0.000000 0.000000 -3.020801 3.449673 -0.000000 -1.412795 -0.000000 -1.524000 -19.137520 -8.316825 0.000000 39.232495 -0.000000 0.000000 -7.120410 -2.348959 -0.000000 -29.518653 -0.000000 -4.616959 13.903405 -4.633000 17.858104 16.508658 -4.544124 -12.320366 0.000000 2.024052 34.736964 3.647039 -28.027972 180.000033 -56.853028 164.361536 13.201326 -6.881733 -0.000000 25.513005 0.000000 -1.189955 -32.027036 2.950141 19.283475 -180.000036 -55.764281 -165.934522 -17.122733 2.345090 0.000000 
63.734000 83.649300 7.722800 1.490983 -1.136791 -71.935032 -8.696007 -21.998467 -9.613981 0.000000 42.081726 -0.000000 0.000000 -2.868793 4.329538 -0.000000 -1.416112 -0.000000 -1.398481 -19.774654 -7.127605 -0.000000 38.994323 -0.000000 -0.000000 -6.720637 -0.780502 0.000000 -29.519100 -0.000000 -5.015026 13.855945 -4.685167 16.448004 16.927212 -3.408187 -13.032224 0.000000 1.989006 34.428091 4.378584 -26.961932 -180.000034 -57.504363 164.362151 13.172010 -6.852301 0.000000 25.054536 0.000000 -1.256536 -32.538010 0.931450 20.770539 180.000037 -56.811508 -168.050800 -17.140050 2.355787 0.000000 
